<svg xmlns="http://www.w3.org/2000/svg" viewBox="0 0 64 64">
  <defs>
    <linearGradient id="bg" x1="6" y1="4" x2="57" y2="61" gradientUnits="userSpaceOnUse">
      <stop stop-color="#f4c47b" />
      <stop offset="1" stop-color="#e89a43" />
    </linearGradient>
    <radialGradient id="fur" cx="30%" cy="22%" r="90%">
      <stop stop-color="#ffe4b5" />
      <stop offset=".62" stop-color="#f5b65e" />
      <stop offset="1" stop-color="#dd8735" />
    </radialGradient>
  </defs>
  <rect width="64" height="64" rx="16" fill="url(#bg)" />
  <path d="m15.6 25.7 2.2-14.1 11.1 7.2h6.2l11.1-7.2 2.2 14.1v13.1c0 10.3-6.8 16.6-16.4 16.6s-16.4-6.3-16.4-16.6V25.7Z" fill="url(#fur)" />
  <path d="m19.5 17.4 1.1 6.3 5.1-3.6Zm25 0-6.2 2.7 5.1 3.6Z" fill="#e58f43" opacity=".85" />
  <ellipse cx="24.8" cy="31.5" rx="6.2" ry="7.1" fill="#51362b" />
  <ellipse cx="39.2" cy="31.5" rx="6.2" ry="7.1" fill="#51362b" />
  <ellipse cx="25.8" cy="29.4" rx="2.1" ry="2.8" fill="#fff" />
  <ellipse cx="40.2" cy="29.4" rx="2.1" ry="2.8" fill="#fff" />
  <circle cx="22.7" cy="34.3" r="1.1" fill="#fff" opacity=".7" />
  <circle cx="37.1" cy="34.3" r="1.1" fill="#fff" opacity=".7" />
  <ellipse cx="32" cy="38.1" rx="3.1" ry="2.1" fill="#b95f45" />
  <path d="M32 40v1.8m0 0c-2.2 2.2-4.5 1.7-5.6.6m5.6-.6c2.2 2.2 4.5 1.7 5.6.6" fill="none" stroke="#7b4638" stroke-linecap="round" stroke-width="1.3" />
  <ellipse cx="19.5" cy="39.4" rx="4.5" ry="2.5" fill="#f78c8e" opacity=".7" />
  <ellipse cx="44.5" cy="39.4" rx="4.5" ry="2.5" fill="#f78c8e" opacity=".7" />
  <path d="M20.5 42.3h-8m8 2.7h-8m39-2.7h-8m8 2.7h-8" stroke="#fff5dd" stroke-linecap="round" stroke-width="1.35" opacity=".9" />
</svg>
